<mxfile host="app.diagrams.net" modified="2020-12-22T00:36:43.616Z" agent="5.0 (Windows)" etag="XgZLhaEUY3PbE6k2H55A" version="14.1.1" type="github">
  <diagram id="W1ECYpE_46Z6q-ScHhNH" name="Page-1">
    <mxGraphModel dx="711" dy="401" grid="1" gridSize="10" guides="1" tooltips="1" connect="1" arrows="1" fold="1" page="1" pageScale="1" pageWidth="850" pageHeight="1100" math="0" shadow="0">
      <root>
        <mxCell id="0" />
        <mxCell id="1" parent="0" />
        <mxCell id="eFMIp7c2CY7fE60DIpBn-1" value="" style="endArrow=classic;html=1;strokeWidth=4;" edge="1" parent="1">
          <mxGeometry width="50" height="50" relative="1" as="geometry">
            <mxPoint x="80" y="80" as="sourcePoint" />
            <mxPoint x="760" y="80" as="targetPoint" />
          </mxGeometry>
        </mxCell>
        <mxCell id="eFMIp7c2CY7fE60DIpBn-2" value="" style="endArrow=classic;html=1;strokeWidth=4;fillColor=#d5e8d4;strokeColor=#82b366;" edge="1" parent="1">
          <mxGeometry width="50" height="50" relative="1" as="geometry">
            <mxPoint x="80" y="280" as="sourcePoint" />
            <mxPoint x="180" y="280" as="targetPoint" />
          </mxGeometry>
        </mxCell>
        <mxCell id="eFMIp7c2CY7fE60DIpBn-3" value="&lt;font style=&quot;font-size: 8px&quot;&gt;(0,0) feature/feature_A&lt;/font&gt;" style="edgeLabel;html=1;align=center;verticalAlign=middle;resizable=0;points=[];" vertex="1" connectable="0" parent="eFMIp7c2CY7fE60DIpBn-2">
          <mxGeometry x="-0.1241" y="3" relative="1" as="geometry">
            <mxPoint y="-7" as="offset" />
          </mxGeometry>
        </mxCell>
        <mxCell id="eFMIp7c2CY7fE60DIpBn-4" value="" style="endArrow=classic;html=1;strokeWidth=4;fillColor=#d5e8d4;strokeColor=#82b366;" edge="1" parent="1">
          <mxGeometry width="50" height="50" relative="1" as="geometry">
            <mxPoint x="80" y="320" as="sourcePoint" />
            <mxPoint x="370" y="320" as="targetPoint" />
          </mxGeometry>
        </mxCell>
        <mxCell id="eFMIp7c2CY7fE60DIpBn-5" value="(0,0) feature/feature_B" style="edgeLabel;html=1;align=center;verticalAlign=middle;resizable=0;points=[];" vertex="1" connectable="0" parent="eFMIp7c2CY7fE60DIpBn-4">
          <mxGeometry x="-0.1241" y="3" relative="1" as="geometry">
            <mxPoint y="-7" as="offset" />
          </mxGeometry>
        </mxCell>
        <mxCell id="eFMIp7c2CY7fE60DIpBn-6" value="" style="endArrow=oval;html=1;strokeWidth=1;endFill=1;" edge="1" parent="1">
          <mxGeometry width="50" height="50" relative="1" as="geometry">
            <mxPoint x="80" y="80" as="sourcePoint" />
            <mxPoint x="80" y="280" as="targetPoint" />
          </mxGeometry>
        </mxCell>
        <mxCell id="eFMIp7c2CY7fE60DIpBn-7" value="" style="endArrow=classic;html=1;strokeWidth=4;fillColor=#d5e8d4;strokeColor=#82b366;" edge="1" parent="1">
          <mxGeometry width="50" height="50" relative="1" as="geometry">
            <mxPoint x="80" y="360" as="sourcePoint" />
            <mxPoint x="260" y="360" as="targetPoint" />
          </mxGeometry>
        </mxCell>
        <mxCell id="eFMIp7c2CY7fE60DIpBn-8" value="(0,0) feature/feature_C" style="edgeLabel;html=1;align=center;verticalAlign=middle;resizable=0;points=[];" vertex="1" connectable="0" parent="eFMIp7c2CY7fE60DIpBn-7">
          <mxGeometry x="-0.1241" y="3" relative="1" as="geometry">
            <mxPoint y="-7" as="offset" />
          </mxGeometry>
        </mxCell>
        <mxCell id="eFMIp7c2CY7fE60DIpBn-9" value="" style="endArrow=oval;html=1;strokeWidth=1;endFill=1;" edge="1" parent="1">
          <mxGeometry width="50" height="50" relative="1" as="geometry">
            <mxPoint x="80" y="80" as="sourcePoint" />
            <mxPoint x="80" y="320" as="targetPoint" />
          </mxGeometry>
        </mxCell>
        <mxCell id="eFMIp7c2CY7fE60DIpBn-10" value="" style="endArrow=oval;html=1;strokeWidth=1;endFill=1;" edge="1" parent="1">
          <mxGeometry width="50" height="50" relative="1" as="geometry">
            <mxPoint x="80" y="80" as="sourcePoint" />
            <mxPoint x="80" y="360" as="targetPoint" />
          </mxGeometry>
        </mxCell>
        <mxCell id="eFMIp7c2CY7fE60DIpBn-22" value="Branch" style="edgeLabel;html=1;align=center;verticalAlign=middle;resizable=0;points=[];fontSize=8;rotation=90;" vertex="1" connectable="0" parent="eFMIp7c2CY7fE60DIpBn-10">
          <mxGeometry x="-0.2786" y="1" relative="1" as="geometry">
            <mxPoint as="offset" />
          </mxGeometry>
        </mxCell>
        <mxCell id="eFMIp7c2CY7fE60DIpBn-11" value="(0,0) nitial Commit" style="text;html=1;strokeColor=none;fillColor=none;align=center;verticalAlign=middle;whiteSpace=wrap;rounded=0;fontSize=8;" vertex="1" parent="1">
          <mxGeometry x="30" y="50" width="80" height="20" as="geometry" />
        </mxCell>
        <mxCell id="eFMIp7c2CY7fE60DIpBn-12" value="01/01/2021" style="text;html=1;strokeColor=none;fillColor=none;align=center;verticalAlign=middle;whiteSpace=wrap;rounded=0;fontSize=8;" vertex="1" parent="1">
          <mxGeometry x="60" y="20" width="40" height="20" as="geometry" />
        </mxCell>
        <mxCell id="eFMIp7c2CY7fE60DIpBn-15" value="01/08/2021" style="text;html=1;strokeColor=none;fillColor=none;align=center;verticalAlign=middle;whiteSpace=wrap;rounded=0;fontSize=8;" vertex="1" parent="1">
          <mxGeometry x="140" y="20" width="40" height="20" as="geometry" />
        </mxCell>
        <mxCell id="eFMIp7c2CY7fE60DIpBn-16" value="01/15/2021" style="text;html=1;strokeColor=none;fillColor=none;align=center;verticalAlign=middle;whiteSpace=wrap;rounded=0;fontSize=8;" vertex="1" parent="1">
          <mxGeometry x="220" y="20" width="40" height="20" as="geometry" />
        </mxCell>
        <mxCell id="eFMIp7c2CY7fE60DIpBn-17" value="01/22/2021" style="text;html=1;strokeColor=none;fillColor=none;align=center;verticalAlign=middle;whiteSpace=wrap;rounded=0;fontSize=8;" vertex="1" parent="1">
          <mxGeometry x="300" y="20" width="40" height="20" as="geometry" />
        </mxCell>
        <mxCell id="eFMIp7c2CY7fE60DIpBn-18" value="" style="endArrow=classic;html=1;strokeWidth=1;fontSize=8;" edge="1" parent="1">
          <mxGeometry width="50" height="50" relative="1" as="geometry">
            <mxPoint x="80" y="80" as="sourcePoint" />
            <mxPoint x="180" y="160" as="targetPoint" />
          </mxGeometry>
        </mxCell>
        <mxCell id="eFMIp7c2CY7fE60DIpBn-21" value="Branch" style="edgeLabel;html=1;align=center;verticalAlign=middle;resizable=0;points=[];fontSize=8;" vertex="1" connectable="0" parent="eFMIp7c2CY7fE60DIpBn-18">
          <mxGeometry x="0.261" relative="1" as="geometry">
            <mxPoint as="offset" />
          </mxGeometry>
        </mxCell>
        <mxCell id="eFMIp7c2CY7fE60DIpBn-19" value="" style="endArrow=classic;html=1;strokeWidth=4;fillColor=#d5e8d4;strokeColor=#82b366;" edge="1" parent="1">
          <mxGeometry width="50" height="50" relative="1" as="geometry">
            <mxPoint x="180" y="160" as="sourcePoint" />
            <mxPoint x="340" y="160" as="targetPoint" />
          </mxGeometry>
        </mxCell>
        <mxCell id="eFMIp7c2CY7fE60DIpBn-20" value="(0,0) releases/chg9999993" style="edgeLabel;html=1;align=center;verticalAlign=middle;resizable=0;points=[];fontSize=8;" vertex="1" connectable="0" parent="eFMIp7c2CY7fE60DIpBn-19">
          <mxGeometry x="-0.1241" y="3" relative="1" as="geometry">
            <mxPoint y="-7" as="offset" />
          </mxGeometry>
        </mxCell>
        <mxCell id="eFMIp7c2CY7fE60DIpBn-23" value="" style="endArrow=classic;html=1;strokeWidth=1;fontSize=8;" edge="1" parent="1">
          <mxGeometry width="50" height="50" relative="1" as="geometry">
            <mxPoint x="180" y="280" as="sourcePoint" />
            <mxPoint x="180" y="160" as="targetPoint" />
          </mxGeometry>
        </mxCell>
        <mxCell id="eFMIp7c2CY7fE60DIpBn-24" value="PR" style="edgeLabel;html=1;align=center;verticalAlign=middle;resizable=0;points=[];fontSize=8;" vertex="1" connectable="0" parent="eFMIp7c2CY7fE60DIpBn-23">
          <mxGeometry x="0.261" relative="1" as="geometry">
            <mxPoint as="offset" />
          </mxGeometry>
        </mxCell>
      </root>
    </mxGraphModel>
  </diagram>
</mxfile>
